<?xml version="1.0" encoding="UTF-8"?>
<svg preserveAspectRatio="xMidYMid slice" xmlns="http://www.w3.org/2000/svg" id="uuid-0ab5b221-2ed1-44da-a1d1-304caed5d17e" data-name="Logomark" width="768px" height="266px" viewBox="0 0 2332.04738 807.36701">
  <g id="uuid-0f19b381-c63e-4e94-9596-b38de47eaf4d" data-name="Split_copy">
    <g>
      <g>
        <g>
          <path d="M2118.39916,497.86685c-3.39663-3.09315-5.09135-9.73137-5.09135-17.91947v-79.95673c0-10.18149-.80048-18.26683-2.39423-24.25601-1.60096-5.98918-4.29567-10.97716-8.08654-14.97356-7.1875-7.58474-17.77163-11.37921-31.74279-11.37921-11.18269,0-21.21394,2.84495-30.09615,8.53425-7.80672,4.99959-14.11197,12.73764-18.91087,23.20762-.44514.97117-1.90163.64886-1.90163-.41947v-30.42397c-8.1875,2.79808-18.56731,4.19231-31.14423,4.19231-5.98798,0-12.18029-.29928-18.56731-.89844v.08233c.00005,3.35249,2.50447,6.1121,5.82136,6.5993,5.35252.78621,9.29945,2.75168,11.84691,5.89589,3.39423,4.19231,5.09135,10.88341,5.09135,20.0637v93.73197c0,8.1881-1.69712,14.82632-5.09135,17.91947-2.56337,2.33751-6.54374,2.77807-11.94732,3.36298-3.25405.35223-5.72092,3.10201-5.72095,6.37506v.19225s69.47596,0,69.47596,0h0c0-3.34401-2.46014-6.18411-5.76938-6.66502-4.367-.63462-7.58608-1.0507-9.6537-3.26527-2.89423-3.09315-4.34135-9.73137-4.34135-17.91947v-66.48077c0-10.18149,1.74519-19.41346,5.24038-27.70012,3.49038-8.28185,8.43269-14.82332,14.82452-19.61478,6.38702-4.79147,13.67067-7.1869,21.86058-7.1869,9.77885,0,16.26923,2.94772,19.46394,8.83413,3.19231,5.89063,4.79087,14.42548,4.79087,25.60397v86.54447c0,8.1881-1.44952,14.82632-4.34135,17.91947-2.07083,2.21433-5.28918,2.63027-9.65416,3.26506-3.30907.48123-5.76891,3.32134-5.76891,6.66522h0s69.47596,0,69.47596,0v-.19271c-.00004-3.27286-2.46679-6.02246-5.72065-6.37462-5.40433-.5849-9.38789-1.02546-11.94762-3.36296Z" style="fill: #1e262c;"></path>
          <path d="M1903.85589,349.38188c-20.36539,0-36.78846,6.73798-49.26202,20.21334-12.47837,13.47596-18.71635,33.89063-18.71635,61.24039,0,27.35397,6.23798,47.71695,18.71635,61.09015,12.47356,13.3774,28.89664,20.0637,49.26202,20.0637,20.36298,0,36.78125-6.6863,49.25962-20.0637,12.47596-13.3732,18.71635-33.73618,18.71635-61.09015,0-27.34976-6.24038-47.76442-18.71635-61.24039-12.47837-13.47536-28.89664-20.21334-49.25962-20.21334ZM1932.303,487.73344c-6.99038,12.17969-16.46875,18.26683-28.44712,18.26683s-21.46394-6.08714-28.44952-18.26683c-6.99038-12.17548-10.48077-31.14423-10.48077-56.89784s3.49038-44.76983,10.48077-57.04748c6.98558-12.27825,16.47115-18.41707,28.44952-18.41707s21.45673,6.13882,28.44712,18.41707c6.98558,12.27764,10.48317,31.29327,10.48317,57.04748s-3.4976,44.72236-10.48317,56.89784Z" style="fill: #1e262c;"></path>
          <path d="M1801.77175,491.62647c-7.6899,4.99219-15.82452,7.48618-24.40625,7.48618-12.77885,0-23.16346-5.63822-31.14423-16.91947-7.98798-11.27644-11.97837-29.29567-11.97837-54.05289,0-17.76683,2.09615-32.08954,6.28846-42.97296,4.19231-10.87861,9.47837-18.66466,15.87019-23.35817,6.38702-4.6881,13.27644-7.03726,20.66346-7.03726,5.78846,0,11.23077,1.19832,16.31971,3.59375,4.07001,1.9149,7.15074,4.21269,9.24343,6.89336.73311.9391.40623,2.35147-.69562,2.80457-2.68338,1.10346-4.98338,2.81192-6.89877,5.12538-2.39663,2.89663-3.59375,6.4387-3.59375,10.63101,0,4.59495,1.59375,8.23498,4.79087,10.93029,3.1899,2.69531,7.08413,4.04267,11.67788,4.04267,4.59135,0,8.38702-1.497,11.37981-4.49219,2.99519-2.99459,4.49279-7.08413,4.49279-12.27764,0-9.18029-4.69231-16.86839-14.07452-23.05829-9.78365-6.38702-21.36539-9.58293-34.73798-9.58293-13.57933,0-25.65625,3.54688-36.23558,10.63101-10.58413,7.08834-18.81971,16.91947-24.70433,29.497-5.89183,12.57692-8.83413,26.95132-8.83413,43.1226,0,15.97416,2.89183,29.9976,8.68269,42.07392,5.78846,12.08173,13.72596,21.3137,23.80769,27.70072,10.07933,6.38642,21.3101,9.58233,33.6899,9.58233,14.77163,0,26.80289-4.09375,36.08654-12.27764,9.28125-8.18389,15.61779-17.96815,19.01442-29.34736h0c-3.17825-1.17087-6.71182.16439-8.38223,3.11091-4.51807,7.96965-9.95922,14.02002-16.32209,18.15111Z" style="fill: #1e262c;"></path>
          <path d="M1699.20925,498.36385c-2.09615,1.09976-4.34375,1.64724-6.73798,1.64724-3.39663,0-5.79327-1.09495-7.1875-3.29387-1.39904-2.19471-2.09615-5.78846-2.09615-10.78065v-83.2506c0-10.57933-.85096-19.11418-2.54567-25.60397-1.69712-6.48498-5.04327-12.02524-10.03125-16.62019-7.98798-7.38341-19.76442-11.07993-35.33654-11.07993-8.78846,0-16.8726,1.09916-24.25721,3.29387-7.38702,2.19952-13.47596,4.99279-18.26683,8.38522-4.59375,3.19591-8.03846,6.39123-10.33173,9.58233-2.29808,3.19591-3.44471,7.1875-3.44471,11.97897,0,4.99219,1.39663,9.23618,4.19471,12.72716,2.79327,3.49519,6.98558,5.24038,12.57692,5.24038,4.98798,0,9.08173-1.44591,12.27644-4.34255,3.19231-2.89123,4.79327-6.83594,4.79327-11.82873,0-4.79087-1.34856-8.78245-4.04327-11.97837-2.11595-2.50573-4.63357-4.33634-7.54935-5.49183-1.18324-.4689-1.46655-2.02611-.55352-2.91285,5.94735-5.77614,15.18677-8.66443,27.71826-8.66443,8.78125,0,15.61779,2.14784,20.51202,6.4381,4.88942,4.29567,7.33654,12.23137,7.33654,23.80769v18.56671c0,5.39002-2.69471,9.6857-8.08413,12.8768-5.39183,3.19591-13.67788,6.69111-24.85577,10.48077-10.98317,3.79507-19.81731,7.38822-26.5024,10.78065-6.69231,3.39724-12.48077,7.98738-17.37019,13.77524-4.89423,5.79267-7.33654,13.17668-7.33654,22.16046,0,11.18269,3.04087,19.91406,9.13462,26.20313,6.08654,6.28846,15.42067,9.43269,28,9.43269,9.77885,0,18.5649-1.94651,26.35096-5.83954,7.78606-3.89303,14.67548-10.82752,20.66346-20.8125,0,8.1887,1.89423,14.67368,5.6899,19.46514,3.79087,4.79147,10.48077,7.1869,20.0649,7.1869,5.58654,0,10.22837-.85156,13.92308-2.54507,3.69231-1.69411,8.13221-4.53906,13.32692-8.53486l-.03824-.05911c-1.70429-2.6345-5.1997-3.32063-7.84709-1.63643-.73193.46563-1.4472.88103-2.14592,1.24602ZM1656.23569,475.15592c-9.38702,15.17428-20.66346,22.75901-33.83894,22.75901-7.1875,0-12.98077-2.29267-17.36779-6.88762-4.39423-4.59014-6.58894-11.37981-6.58894-20.36358,0-7.78606,1.69471-14.17308,5.09135-19.16526,3.39183-4.98798,7.4351-8.93269,12.1274-11.82873,4.6875-2.89183,10.82692-5.9381,18.41587-9.13401,6.58894-2.99459,11.47837-5.39002,14.67548-7.1869,3.1899-1.79688,5.6899-4.08954,7.48558-6.88762v58.69471Z" style="fill: #1e262c;"></path>
          <path d="M1535.82463,492.52431c-7.38942,4.59495-15.8726,6.88762-25.45433,6.88762-7.78606,0-15.22596-2.64363-22.3101-7.9357-7.08894-5.28726-12.77885-12.82512-17.06971-22.60938-4.29567-9.77885-6.4375-21.26142-6.4375-34.4381,0-7.1869.29808-13.57392.89663-19.16526h93.73317c0-22.16046-4.84375-38.67728-14.52404-49.5613-9.6851-10.87861-23.50721-16.32031-41.47596-16.32031-13.57933,0-25.45433,3.44351-35.63702,10.33113-10.18029,6.88762-18.06971,16.72356-23.65625,29.497-5.59135,12.77885-8.38462,27.85036-8.38462,45.21875,0,15.3756,2.74038,28.89844,8.23558,40.57752,5.48798,11.67909,13.42308,20.76563,23.80529,27.2506,10.37981,6.48558,22.65625,9.73257,36.83414,9.73257,13.97356,0,25.90385-3.94411,35.78606-11.82873,9.88221-7.88401,16.62019-17.31731,20.21394-28.29928h0c-3.32319-1.32888-7.07753.05734-8.83109,3.17736-4.44041,7.90054-9.684,13.72981-15.72419,17.48551ZM1477.72848,368.84702c6.78365-9.18089,14.87019-13.77524,24.25721-13.77524,9.58173,0,16.8149,5.19351,21.70914,15.57151,4.89183,10.38341,7.13702,23.35817,6.73798,38.93029h-65.28125c1.59615-17.96755,5.78846-31.54147,12.57692-40.72656Z" style="fill: #1e262c;"></path>
          <path d="M1359.79345,395.79834v-.59916c15.76675-4.79087,27.298-11.77704,34.58646-20.96214,7.28606-9.18029,10.93029-19.5631,10.93029-31.14423,0-14.17248-5.4399-25.55228-16.31971-34.13822-10.88462-8.58173-26.50233-12.8768-46.86531-12.8768-4.79087,0-9.08654.10276-12.8774.29928l-32.34135.29928c-15.97596,0-28.14904-.29928-36.53606-.89844v5.98918c7.1875.40264,12.42788,1.19832,15.72356,2.39603,3.29327,1.19772,5.53846,3.49519,6.73798,6.88762,1.19712,3.39663,1.79567,8.88522,1.79567,16.47055v148.53306c0,7.58954-.59856,13.07813-1.79567,16.46995-1.19952,3.39724-3.44471,5.6899-6.73798,6.88762-3.29567,1.19832-8.53606,1.9982-15.72356,2.39603v5.98918c8.38702-.59916,20.76202-.89844,37.13462-.89844,12.375,0,24.95433.20132,37.73077.59916,3.79087.20072,8.38702.29928,13.77644.29928,14.77163,0,27.55041-2.44231,38.33166-7.33654,10.77885-4.89002,19.0625-11.72596,24.85577-20.51322,5.78606-8.78305,8.68269-18.86659,8.68269-30.24579,0-13.57392-4.69231-25.20192-14.07452-34.88762-9.38462-9.68089-25.05529-16.02103-47.01435-19.01563ZM1312.47855,327.5213c0-7.1875.59856-12.57752,1.79567-16.17127,1.19712-3.59375,3.34135-6.08774,6.4399-7.48678,3.09135-1.39423,7.73317-2.09615,13.92308-2.09615,14.77163,0,25.45433,3.69651,32.04327,11.08053,6.58887,7.38822,9.88214,18.56611,9.88214,33.53966,0,14.77644-3.2476,26.60517-9.7331,35.48618-6.49038,8.88522-17.92067,13.32572-34.28846,13.32572h-20.0625v-67.67789ZM1334.93768,500.90952c-6.39183,0-11.13221-.64543-14.22356-1.94651-3.09856-1.29627-5.24279-3.64063-6.4399-7.03726-1.19712-3.39243-1.79567-8.6845-1.79567-15.87139v-75.76382h25.15385c18.56731,0,32.08894,4.09375,40.57685,12.27764,8.48317,8.1887,12.72837,20.16707,12.72837,35.9357,0,34.9387-18.67067,52.40565-55.99993,52.40565Z" style="fill: #1e262c;"></path>
          <path d="M1230.87518,492.52431c-7.38702,4.59495-15.87019,6.88762-25.45433,6.88762-7.78606,0-15.22596-2.64363-22.3101-7.9357-7.08894-5.28726-12.77885-12.82512-17.06731-22.60938-4.29567-9.77885-6.4399-21.26142-6.4399-34.4381,0-7.1869.30048-13.57392.89904-19.16526h93.73077c0-22.16046-4.84135-38.67728-14.52404-49.5613-9.6851-10.87861-23.50721-16.32031-41.47596-16.32031-13.57692,0-25.45433,3.44351-35.63462,10.33113-10.18269,6.88762-18.06971,16.72356-23.65865,29.497-5.59135,12.77885-8.38462,27.85036-8.38462,45.21875,0,15.3756,2.74279,28.89844,8.23558,40.57752,5.48798,11.67909,13.42548,20.76563,23.80769,27.2506,10.3774,6.48558,22.65625,9.73257,36.83414,9.73257,13.97115,0,25.90385-3.94411,35.78606-11.82873,9.88221-7.88401,16.62019-17.31731,20.21394-28.29928h0c-3.32338-1.32895-7.078.05714-8.8319,3.1772-4.44122,7.90062-9.68359,13.72994-15.72579,17.48566ZM1172.77903,368.84702c6.78606-9.18089,14.87019-13.77524,24.25721-13.77524,9.58413,0,16.81731,5.19351,21.71154,15.57151,4.88942,10.38341,7.13462,23.35817,6.73798,38.93029h-65.28366c1.59615-17.96755,5.78846-31.54147,12.57692-40.72656Z" style="fill: #1e262c;"></path>
          <path d="M1108.33912,479.94738v-79.95673c0-10.18149-.80048-18.26683-2.39423-24.25601-1.60096-5.98918-4.29567-10.97716-8.08654-14.97356-7.1875-7.58474-17.77163-11.37921-31.74279-11.37921-11.18269,0-21.21394,2.84495-30.09615,8.53425-8.88462,5.6899-15.82452,14.92668-20.8125,27.70072v-35.33654c-8.1875,2.79808-18.56731,4.19231-31.14423,4.19231-5.98798,0-12.17909-.29928-18.56611-.89844v.08311c.00009,3.3521,2.50423,6.11138,5.82074,6.59856,5.35199.78619,9.29889,2.75166,11.84633,5.89585,3.39423,4.19231,5.09135,10.88341,5.09135,20.0637v93.73197c0,8.1881-1.69712,14.82632-5.09135,17.91947-2.54745,2.32299-6.49435,2.7725-11.84635,3.35205-3.29297.35658-5.82064,3.07296-5.82072,6.38518v.19306s69.47476,0,69.47476,0h0c0-3.3568-2.47781-6.18686-5.79973-6.66943-4.35157-.63215-7.56052-1.05142-9.62335-3.26086-2.89423-3.09315-4.34135-9.73137-4.34135-17.91947v-66.48077c0-10.18149,1.74519-19.41346,5.24038-27.70012,3.49038-8.28185,8.43269-14.82332,14.82452-19.61478,6.38702-4.79147,13.67067-7.1869,21.86058-7.1869,9.77885,0,16.26923,2.94772,19.46394,8.83413,3.19231,5.89063,4.79087,14.42548,4.79087,25.60397v86.54447c0,8.1881-1.44952,14.82632-4.34135,17.91947-2.06596,2.20912-5.27404,2.6283-9.62336,3.26058-3.32192.48292-5.79971,3.31286-5.79971,6.6697h0s69.47596,0,69.47596,0v-.19273c-.00004-3.3124-2.52786-6.02895-5.82101-6.38548-5.35331-.57956-9.3034-1.02907-11.84725-3.35208-3.39663-3.09315-5.09135-9.73137-5.09135-17.91947Z" style="fill: #1e262c;"></path>
          <path d="M852.03248,291.28797c-60.75271,0-110.00256,49.24978-110.00256,110.00256s49.24985,110.00256,110.00256,110.00256,110.00256-49.24985,110.00256-110.00256-49.24985-110.00256-110.00256-110.00256ZM852.03248,504.42486c-41.69751,0-75.5-46.29053-75.5-103.39281s33.80249-103.39281,75.5-103.39281,75.5,46.29053,75.5,103.39281-33.80249,103.39281-75.5,103.39281Z" style="fill: #1e262c;"></path>
        </g>
        <path d="M196.17505,391.72879c-.11958,2.87216-.1951,5.75578-.1951,8.65736s.07552,5.78521.1951,8.65736c4.41892,106.13603,89.66195,191.37906,195.79798,195.79798V195.93073c-106.13603,4.41892-191.37906,89.66203-195.79798,195.79806Z" style="fill: #1e262c;"></path>
        <g>
          <path d="M407.97305,604.84147c106.2346-4.423,191.55694-89.74527,195.97995-195.97987h-195.97995v195.97987Z" style="fill: #0f6099;"></path>
          <rect x="505.49145" y="376.86159" width="98.46154" height="16" style="fill: #0f6099;"></rect>
          <rect x="501.15387" y="335.32225" width="139.69244" height="15.99996" transform="translate(-69.40195 159.48404) rotate(-14.99999)" style="fill: #0f6099;"></rect>
          <rect x="487.88218" y="306.92141" width="98.46155" height="16.00003" transform="translate(-85.50122 310.7472) rotate(-29.99993)" style="fill: #0f6099;"></rect>
          <rect x="453.02902" y="247.47518" width="184.6609" height="15.99999" transform="translate(-20.91614 460.45432) rotate(-45)" style="fill: #0f6099;"></rect>
          <rect x="436.68247" y="255.72163" width="98.46149" height="16.00003" transform="translate(14.56688 552.67386) rotate(-59.99998)" style="fill: #0f6099;"></rect>
          <rect x="387.66741" y="221.83615" width="139.68918" height="15.99996" transform="translate(117.09498 612.27321) rotate(-75.00007)" style="fill: #0f6099;"></rect>
          <rect x="407.97305" y="195.75049" width="16" height="98.46154" style="fill: #0f6099;"></rect>
        </g>
        <path d="M2125.05949,358.64585v-2.36328h12.07031v2.36328h-4.62891v11.79688h-2.8125v-11.79688h-4.62891ZM2143.58,356.28257l3.61816,10.13672,3.6416-10.13672h4.02441v14.16016h-2.59766v-11.42578l-3.91797,11.42578h-2.26562l-3.95312-11.42578v11.42578h-2.59766v-14.16016h4.04785Z" style="fill: #1e262c;"></path>
      </g>
      <g id="uuid-74b3b668-386a-4272-aa80-858b959f0d03" data-name="Tagline">
        <g>
          <path d="M1520.56587,553.34769c.57526-1.90373,1.2533-3.90871,2.01571-5.9597l.20709-.55685-.59367.02761c-2.52348.11812-5.46421.19175-8.73783.2209-3.25521.03068-6.1714.04295-8.7501.04295h-6.99364c-2.97142,0-6.0901-.02915-9.27321-.08744-3.28436-.05676-6.36315-.11659-9.23639-.17641l-.31294-.00614-.63049,2.53115.48169.01994c3.48378.1396,4.7064.78696,5.11599,1.30393.40652.51083.66884,1.92674-.37737,5.76795l-11.70004,43.6278c-.5768,2.07401-1.17046,3.64025-1.76413,4.65731-.56145.96337-1.36068,1.6138-2.37314,1.93441-1.07996.34209-2.61705.57219-4.56834.68571l-.2884.01687-.63509,2.54956.5231-.02148c2.87324-.11659,5.96124-.19022,9.17963-.21937,3.25368-.02915,6.33247-.04449,9.23332-.04449h6.99364c2.93,0,6.27265.01534,10.02488.04449,3.71542.02915,7.11483.10278,10.10465.21937l.34822.01381.05523-.34516c.34976-2.22434.76395-4.39039,1.22722-6.44139.47402-2.11082.84678-3.674,1.14132-4.78924.28533-1.19961.60901-2.37468.9603-3.49145.35129-1.11064.67344-2.04946.9603-2.79193l.20556-.53384h-2.87017l-.09511.25772c-1.39136,3.82434-2.82722,6.89086-4.27074,9.1152-1.41898,2.18446-3.19692,3.77831-5.2878,4.73708-2.10469.96951-5.01014,1.4604-8.63352,1.4604h-6.42145c-3.55588,0-4.78771-.59214-5.19422-1.08916-.40345-.48936-.66423-1.87919.38351-5.71733l5.58387-20.82138h5.47342c2.42837,0,4.00535.5185,4.68646,1.54017.70872,1.06462,1.01246,2.46212.90354,4.15415-.11659,1.7626-.32215,3.6019-.61208,5.46421l-.07057.45254h2.7996l.06443-.31141c.46941-2.22741.86519-4.08819,1.18887-5.58387.32061-1.49261.61361-2.77659.87746-3.85962.26385-1.08456.51083-2.09395.744-3.02204.41572-1.48954.84525-3.12175,1.27785-4.84907.43873-1.7534,1.22109-4.31829,2.32405-7.62413l.17181-.51697h-2.83028l-.09971.24084c-.58753,1.40517-1.27478,3.01744-2.06634,4.83373-.76701,1.76107-1.83317,3.31657-3.16931,4.6251-1.29472,1.26864-3.19999,1.9114-5.6621,1.9114h-5.31848l5.43353-20.26453c.57066-2.12003,1.1766-3.69701,1.80095-4.68799.59674-.9511,1.37296-1.55857,2.37314-1.85618,1.04621-.30987,2.56336-.46788,4.50698-.46788h6.42145c3.01437,0,5.17735.40805,6.42912,1.21342,1.21649.78389,1.86385,2.09395,1.97583,4.00382.11505,1.97736-.12119,4.71407-.69798,8.13496l-.07827.45867h2.81651l.05829-.32215c.11659-.64122.27613-1.44506.48015-2.40843.20709-.97257.45714-1.98657.74247-3.00516.29147-.99712.7302-2.46212,1.31773-4.39499Z" style="fill: #0f6099;"></path>
          <path d="M1558.21095,568.96412c.5185.37124,1.18427.77315,1.98657,1.19808.99098.52771,2.17832.79463,3.52673.79463,1.50949,0,2.74131-.46788,3.66326-1.39136.92349-.92349,1.39136-2.00804,1.39136-3.22453,0-1.11831-.42032-2.02032-1.24717-2.68148-.8023-.64122-1.81783-.96644-3.0159-.96644-1.5325,0-3.02204.43413-4.42721,1.28858-1.37602.83758-2.94534,2.25502-4.66345,4.20938-1.88686,2.12156-3.49912,4.31829-4.79538,6.5273-.7977,1.35915-1.50642,2.69682-2.11849,4.00075l-.84832-7.58424c-.3651-3.23527-1.18274-5.39978-2.4974-6.62087-1.30086-1.20728-3.04812-1.82089-5.19269-1.82089-1.27938,0-2.57564.27766-3.85041.82377-1.28245.55072-2.48666,1.50642-3.57889,2.83949-1.07689,1.3162-2.07554,3.18771-2.97142,5.57466l-2.37621,6.94302h2.4974l1.23796-3.51753c1.14899-3.27669,2.18599-5.4366,3.08493-6.41838,1.58312-1.73192,3.10334-1.75953,4.0299-.67037.4464.52617.78696,1.52636,1.00939,2.95454l1.87612,16.80836c-1.07535,2.55263-2.54342,5.33075-4.37045,8.27609-2.02339,3.25828-4.37505,6.14379-6.99211,8.57829-.54918-.40959-1.21649-.82684-1.99117-1.24103-.93422-.49703-2.12156-.74861-3.52827-.74861-1.38983,0-2.57564.46634-3.52673,1.38523-.95417.92349-1.43892,2.00958-1.43892,3.22913,0,1.11217.38504,2.01111,1.14592,2.67075.74707.64889,1.8255.97718,3.20459.97718,1.41898,0,2.88091-.48015,4.34744-1.42665,1.42511-.91888,3.04658-2.31485,4.82606-4.15569,2.05713-2.23048,3.81513-4.43641,5.22797-6.55644,1.40671-2.10929,2.58637-4.16949,3.50372-6.12078.03682-.07977.07363-.15801.11045-.23624l1.12291,10.05403c.36203,3.13862,1.26557,5.35376,2.68302,6.58559s3.10181,1.85618,5.00861,1.85618c1.33767,0,2.64927-.27766,3.89644-.82531,1.25177-.54918,2.45445-1.50335,3.57275-2.83335,1.10757-1.31773,2.09395-3.19385,2.93-5.57927l2.37775-6.94148h-2.49893l-1.23643,3.516c-1.15052,3.27822-2.18906,5.4366-3.08647,6.41838-1.58465,1.73652-3.10948,1.75493-4.02836.6719-.44947-.52771-.78849-1.52483-1.00939-2.96528l-2.08475-18.65533c.78542-1.94055,1.73499-4.05597,2.83949-6.32327,1.61994-3.32424,3.72923-6.24043,6.27418-8.67647Z" style="fill: #0f6099;"></path>
          <path d="M1606.72924,562.693c-3.98694,0-7.7806,2.51274-11.27205,7.46919-1.2533,1.77641-2.53575,4.00535-3.84581,6.67916l7.96315-27.83497-.71639.25005c-1.13672.39885-2.39769.68725-3.74763.86059-1.36529.17488-2.75972.293-4.14495.34976l-.2838.01227-.40498,1.44045-.00767.01841c-1.92061,4.59749-3.83507,8.45557-5.68972,11.46994-1.85157,3.00977-3.79059,5.63909-5.76335,7.81588-1.99424,2.1998-4.14955,4.42721-6.40457,6.62394l-.26232.25465,1.4742,1.74266.3022-.2884c3.63105-3.45617,6.95989-7.17159,9.89296-11.04194,1.12751-1.48954,2.19059-3.14323,3.18618-4.95338l-15.31268,54.48566c-.56299,1.96663-1.29012,3.33651-2.16298,4.07285-.86059.72713-2.31332,1.0953-4.31983,1.0953h-.29607l-.76241,2.66614.55532-.03375c.93576-.05829,2.34246-.13193,4.21551-.21937,4.34897-.20403,8.56909-.15494,12.32593,0,2.13844.08744,3.79366.16107,4.96565.21937l.31141.01534.75628-2.64774h-.52004c-2.55109,0-4.52232-.42339-5.86153-1.25944-1.25177-.78389-1.5417-2.27957-.88667-4.57448l3.0067-10.50657c.53077,1.05848,1.24563,1.93441,2.13844,2.61859,1.44199,1.1045,3.10488,1.66442,4.94571,1.66442,3.33651,0,6.42145-.8023,9.16889-2.38388,2.72444-1.56931,5.17428-3.70161,7.2805-6.34014,2.09088-2.62319,3.88263-5.53631,5.32615-8.65806,1.43739-3.10794,2.54189-6.30026,3.28129-9.48797.73787-3.18771,1.11064-6.14686,1.11064-8.79766,0-4.23546-.87286-7.45692-2.59711-9.57388-1.74112-2.13844-4.07745-3.223-6.94455-3.223ZM1588.05089,590.31934c1.71501-4.53766,3.57275-8.67954,5.52251-12.31366,1.93901-3.61878,3.87496-6.52269,5.75108-8.63352,1.81936-2.04333,3.45157-3.0788,4.85367-3.0788,1.14899,0,2.03106.55532,2.69529,1.69664.69338,1.19501,1.04621,3.06806,1.04621,5.56393,0,2.60018-.30834,5.49029-.91582,8.59057-.60748,3.09874-1.49108,6.24657-2.62319,9.35144-1.12905,3.10027-2.46519,5.96431-3.97007,8.51386-1.49875,2.53115-3.15703,4.58521-4.93191,6.10084-1.73499,1.48494-3.57275,2.23815-5.46268,2.23815-1.36682,0-2.57103-.41419-3.58043-1.23183-.89894-.72866-1.71811-1.95742-2.43911-3.65866l2.52655-8.82987c.48322-1.45886.99405-2.89625,1.52789-4.30909Z" style="fill: #0f6099;"></path>
          <path d="M1657.97196,564.22703c-1.32847-1.0186-2.96221-1.53403-4.85827-1.53403-3.39327,0-6.62241.8161-9.59842,2.42377-2.95914,1.59692-5.68665,3.7553-8.10888,6.41378-2.41456,2.64774-4.51772,5.58847-6.25424,8.73937-1.73652,3.14629-3.09414,6.33861-4.03603,9.49104-.94496,3.1555-1.42358,6.04868-1.42358,8.59977,0,4.1971,1.08916,7.41243,3.23834,9.55854,2.14764,2.14918,5.09605,3.23834,8.76544,3.23834,2.57103,0,5.04389-.5906,7.348-1.758,2.2857-1.15819,4.37659-2.67842,6.21282-4.51465,1.83317-1.83317,3.33498-3.7553,4.46096-5.71119l.20709-.3605-2.08628-1.04467-.19329.2838c-2.18292,3.21686-4.44562,5.48416-6.72519,6.73899-2.27497,1.25023-4.46096,1.88532-6.49662,1.88532-1.71198,0-3.05272-.60134-4.09739-1.8393-1.04928-1.2395-1.58005-3.33038-1.58005-6.21282,0-2.73978.2976-5.49183.88667-8.2224,1.1045-.37891,2.27957-.79923,3.51906-1.26097,2.51121-.93269,5.12826-2.06327,7.77753-3.35799,2.64467-1.29319,5.13593-2.7996,7.40629-4.47937,2.2857-1.69357,4.15108-3.58963,5.54552-5.63756,1.41744-2.08168,2.13537-4.36125,2.13537-6.77427,0-2.0556-.68878-3.62491-2.04486-4.66498ZM1634.61943,586.69136c1.24563-3.93939,2.84716-7.59805,4.75856-10.87167,1.90833-3.26441,3.95473-5.89681,6.08243-7.82355,2.08475-1.88839,4.00995-2.84562,5.71886-2.84562.31908,0,.53538.15033.70412.48629.14113.28533.30987,1.05081.30987,3.0788,0,2.7996-.60748,5.40285-1.80402,7.73765-1.20115,2.34553-2.8533,4.37505-4.90429,6.0272-1.55244,1.20575-3.66633,2.3578-6.28492,3.42242-1.52943.62128-3.17237,1.25177-4.91043,1.88532.10431-.36663.21476-.73173.32982-1.09683Z" style="fill: #0f6099;"></path>
          <path d="M1699.64848,562.693c-2.00191,0-3.92098.56759-5.70659,1.68743-1.77027,1.11217-3.51293,2.92539-5.17582,5.39211-1.64755,2.44371-3.33191,5.67744-5.00707,9.6107-.16107.38044-.32521.77008-.48936,1.16893l1.27631-5.05156c.46788-1.81169.85599-3.68934,1.15206-5.5808.3022-1.94822.12886-3.63872-.51697-5.01934-.68264-1.465-2.29644-2.20747-4.79844-2.20747-1.87919,0-3.87036.61054-5.91675,1.81322-2.06941,1.21802-3.78445,3.74457-5.09758,7.51368l-2.37775,6.94148h2.49893l1.23489-3.516c1.15206-3.22453,2.25656-5.52711,3.28282-6.8387.98638-1.26097,2.03566-1.87305,3.20919-1.87305,1.05234,0,1.31313.50009,1.42205.93422.18562.74707-.0046,2.09855-.56912,4.02069l-10.55719,37.73866-.13806.49856h8.47551l1.76107-6.97216c1.11984-3.75224,2.2765-7.31425,3.45003-10.61855,1.42205-4.00842,2.89778-7.71157,4.38579-11.00973,1.48341-3.28436,2.98369-6.13919,4.46249-8.48625,1.4696-2.33326,2.92386-4.13881,4.32443-5.36757,1.35455-1.18887,2.67075-1.79175,3.91638-1.79328-.82377.46788-1.54323,1.07842-2.14918,1.82243-.81764,1.00632-1.23183,2.2719-1.23183,3.76604,0,1.11524.38811,2.00191,1.15512,2.63393.74094.61515,1.66902.92655,2.75665.92655,1.74112,0,3.28436-.65963,4.58828-1.96202,1.30239-1.30239,1.96202-2.90545,1.96202-4.7647,0-1.56318-.49549-2.86864-1.4742-3.87956-.98485-1.01399-2.36547-1.52789-4.10813-1.52789Z" style="fill: #0f6099;"></path>
          <path d="M1729.16934,598.58162c-1.26251,3.55435-2.54035,5.89528-3.79826,6.95682-1.24103,1.04774-2.47286,1.57852-3.66173,1.57852-1.1858,0-2.11389-.37584-2.83642-1.14899-.68878-.74094-.79156-2.02032-.30374-3.80593l10.1384-35.69227h11.901l.38197-2.54496h-11.56045l4.21705-14.8448-.7256.26692c-1.07996.39731-2.30871.68725-3.65252.85906-1.37142.17488-2.76586.29147-4.14495.34822l-.28226.01227-3.83507,13.35833h-7.96161l-.63509,2.54496h7.8665l-9.14895,31.871c-1.07842,3.71389-1.05541,6.79575.0675,9.16122,1.15052,2.4253,3.62184,3.65559,7.348,3.65559,2.76586,0,5.22337-.73327,7.30505-2.18139,2.08475-1.45119,3.80746-4.15108,5.11906-8.02758l2.01878-6.05942h-2.49126l-1.3254,3.69241Z" style="fill: #0f6099;"></path>
          <path d="M1768.00484,563.32195c-1.67209-.41726-3.39174-.62895-5.10985-.62895-3.83201,0-7.15932,1.1858-9.88835,3.52673-2.74591,2.3532-4.13881,5.50103-4.13881,9.35758,0,2.76279.64122,5.18502,1.9068,7.20227,1.24103,1.9789,2.54802,3.92558,3.8857,5.78329,1.67209,2.30718,2.85483,4.36431,3.51293,6.11004.65499,1.73806.98638,3.51139.98638,5.27246,0,2.80574-.80076,4.97179-2.38081,6.44139-1.58925,1.47727-3.64489,2.22588-6.11157,2.22588-1.07382,0-1.88379-.06903-2.40689-.20709-.42339-.11045-.82377-.25005-1.19808-.41726.10278-.55685.2163-1.14439.34055-1.76567.15033-.75628.22704-1.62454.22704-2.58331,0-1.4604-.30987-2.80881-.92195-4.00689-.6581-1.27938-1.78254-1.92828-3.34112-1.92828-1.43739,0-2.45598.52771-3.02664,1.56778-.52924.9649-.7977,1.9022-.7977,2.78426,0,2.20133.61208,3.99154,1.81783,5.32155,1.18427,1.30853,2.73671,2.27803,4.61129,2.88091,1.85157.59674,3.81667.89894,5.84005.89894,2.80421,0,5.40899-.60594,7.74378-1.80248,2.33786-1.19808,4.23699-2.88551,5.64523-5.01628,1.41591-2.1369,2.13384-4.62203,2.13384-7.38482,0-2.33479-.51697-4.58368-1.53556-6.68223-.99712-2.051-2.24889-4.22625-3.71849-6.46593l-3.91484-5.93669c-.86212-1.30546-1.29932-2.9346-1.29932-4.84293,0-2.51888.70105-4.49624,2.08475-5.87994,1.38216-1.38216,3.12328-2.08321,5.17582-2.08321,1.5325,0,2.81034.26079,3.80746.77622-.64889.84832-1.17507,1.71505-1.56931,2.58177-.46174,1.01399-.69492,2.08935-.69492,3.19845,0,1.22262.39578,2.21974,1.1766,2.96681.77315.74247,1.69357,1.11984,2.73364,1.11984,1.67363,0,2.85636-.63202,3.516-1.88072.61208-1.16893.92349-2.20747.92349-3.08647,0-2.20747-.586-3.91331-1.74266-5.0715-1.13211-1.13058-2.5695-1.91907-4.27227-2.34553Z" style="fill: #0f6099;"></path>
          <path d="M1843.58494,602.07461l11.20148-39.61018-.71332.25005c-1.13978.40038-2.41456.69031-3.78905.86212-1.41898.17641-2.82722.293-4.1879.34822l-.293.01227-.97257,3.83814c-.17335-.6719-.40805-1.28552-.70412-1.8393-1.15512-2.15224-2.85483-3.24294-5.05309-3.24294-2.70143,0-5.39211.84985-7.99843,2.52655-2.5741,1.65675-4.98713,3.87496-7.17312,6.59326-2.17372,2.70143-4.12807,5.74341-5.8063,9.04157-1.67976,3.30123-3.0067,6.65462-3.94246,9.96659-.94343,3.32884-1.42205,6.45826-1.42205,9.29929,0,3.17698.71793,5.82624,2.13537,7.87724,1.45119,2.09702,3.64639,3.1601,6.52576,3.1601,3.61878,0,7.19613-1.99884,10.63236-5.9413,1.86231-2.1369,3.73076-5.12979,5.59461-8.9618l-.5093,2.00804c-.46481,1.80402-.88207,3.63258-1.23643,5.43353-.36817,1.87765-.14727,3.55128.6673,4.98713,1.00939,1.64141,2.74898,2.47439,5.17275,2.47439,1.7718,0,3.65252-.67497,5.58847-2.00498,1.93595-1.33,3.58196-3.81973,4.89816-7.40936l2.37775-6.94148h-2.5066l-1.14285,3.5252c-1.0953,3.33958-2.19366,5.6621-3.26748,6.90313-1.03087,1.19348-2.08475,1.79942-3.13249,1.79942-1.07689,0-1.33-.4418-1.42665-.77315-.18562-.63355-.18408-1.34995.0046-2.12923.20556-.85292.36663-1.54477.47862-2.05253ZM1839.15006,587.47985c-1.56931,3.83661-3.30583,7.30965-5.16048,10.32402-1.85311,3.00977-3.69855,5.42586-5.48416,7.18386-1.73192,1.70431-3.26748,2.5695-4.5622,2.5695-.79156,0-1.41284-.42339-1.90066-1.29472-.52157-.93116-.78542-2.64313-.78542-5.08684,0-3.81973.55839-7.88491,1.65982-12.08355,1.0999-4.20478,2.5695-8.17484,4.36892-11.79976,1.79175-3.61417,3.73843-6.58866,5.78789-8.84061,1.99424-2.19059,3.92405-3.30123,5.73574-3.30123,1.71965,0,2.92539.85752,3.68627,2.62166.72099,1.67516.94803,3.87496.67651,6.55031l-1.54937,6.11771c-.71179,2.40229-1.53863,4.75703-2.47286,7.03966Z" style="fill: #0f6099;"></path>
          <path d="M1887.93067,549.08002l-.7256.26692c-1.07996.39731-2.30871.68725-3.65099.85906-1.37449.17488-2.76892.29147-4.14648.34822l-.28226.01227-3.83507,13.35833h-7.96008l-.63662,2.54496h7.8665l-9.14742,31.871c-1.07842,3.71389-1.05541,6.79575.06596,9.16122,1.15052,2.4253,3.62184,3.65559,7.348,3.65559,2.76739,0,5.2249-.73327,7.30505-2.18139,2.08475-1.45119,3.80746-4.15108,5.11906-8.02758l2.02032-6.05942h-2.4928l-1.3254,3.69241c-1.26097,3.55435-2.53882,5.89528-3.79826,6.95682-1.24103,1.04774-2.47132,1.57852-3.66019,1.57852-1.18734,0-2.11543-.37584-2.83642-1.14899-.68878-.74094-.79156-2.02032-.30374-3.80593l10.13687-35.69227h11.901l.38197-2.54496h-11.56045l4.21705-14.8448Z" style="fill: #0f6099;"></path>
          <path d="M2004.51231,550.33026c.90815-.45254,1.76413-.76701,2.54649-.93576l.23931-.05062.62895-2.51888-.53538.03528c-.93883.05829-1.90526.11812-2.90238.17488-.97257.05983-2.20287.08744-3.75837.08744-.99559,0-2.06174-.01227-3.20152-.04295l-3.43162-.08897c-1.13825-.02761-2.26576-.0721-3.37487-.13193l-.32368-.01687-.63662,2.54956.49089.01227c2.38081.05829,4.12194.40959,5.17121,1.04314.97871.59367,1.36375,1.66289,1.1766,3.26902-.19942,1.70584-1.14745,4.26767-2.81955,7.61185l-16.64729,33.7916-6.10084-38.77873c-.4418-2.85636-.23931-4.77543.58447-5.54705.86212-.80843,2.78887-1.27631,5.72807-1.38983l.30987-.01227.5093-2.55723-.50163.02454c-1.22876.05983-2.83949.11965-4.83219.17641-1.95742.05829-4.05291.08744-6.40918.08744-1.48801,0-2.90238-.02915-4.20478-.08744-1.34841-.05676-2.54802-.11659-3.6019-.17641l-.33902-.01841-.50776,2.52961.44333.03221c.72099.05369,1.42205.41419,2.08321,1.07382.66884.67037,1.17967,2.09242,1.51716,4.22625l1.95129,12.39496-17.76713,30.0317-4.7831-40.77451c-.33595-2.80574-.13039-4.65578.61054-5.50103.744-.85139,2.07401-1.33921,3.95013-1.44966l.3022-.01841.51083-2.55416-.50623.02761c-1.05388.05983-2.41456.11965-4.08359.17641-1.61533.05829-3.43009.08744-5.39518.08744-1.66749,0-3.24601-.02915-4.69106-.08744-1.49414-.05676-2.82722-.11659-3.99768-.17641l-.33902-.01687-.50776,2.53268.44947.02761c.86059.05523,1.77027.41726,2.70143,1.07382.89894.63509,1.49568,2.05407,1.7718,4.21398l6.99211,55.67607h1.9789l23.42156-39.33865,6.19134,39.33865h1.98657l26.40985-53.52689c.91582-1.83317,1.85771-3.28282,2.79807-4.30756.92809-1.01246,1.85157-1.7534,2.74438-2.20133Z" style="fill: #0f6099;"></path>
          <path d="M2027.25123,562.693c-4.16642,0-7.91406,1.16433-11.13552,3.46077-3.19538,2.27803-5.91062,5.23104-8.069,8.77925-2.14918,3.53287-3.80593,7.30965-4.9227,11.22603-1.11984,3.91331-1.68743,7.54589-1.68743,10.79497,0,4.71561,1.14592,8.2991,3.40708,10.65077,2.2673,2.3578,5.30774,3.55281,9.03697,3.55281,4.16642,0,7.91406-1.16433,11.13705-3.46077,3.19078-2.27343,5.90448-5.22797,8.06746-8.77925,2.14918-3.5344,3.80593-7.30965,4.92423-11.22449,1.11984-3.91945,1.68743-7.55203,1.68743-10.7965,0-4.77543-1.14745-8.37427-3.41168-10.69832-2.26576-2.32559-5.30467-3.50526-9.0339-3.50526ZM2019.56268,606.465c-1.64908,1.42511-3.38254,2.14764-5.15434,2.14764-1.51869,0-2.637-.54918-3.41475-1.67823-.80076-1.15666-1.20575-3.03431-1.20575-5.58233,0-3.08033.29453-6.34321.87286-9.69813.5814-3.37026,1.41898-6.66382,2.49126-9.79171,1.07229-3.12942,2.33479-5.99345,3.75377-8.5108,1.40671-2.49893,2.97602-4.50544,4.66498-5.96431,1.64908-1.42665,3.38254-2.14918,5.15281-2.14918,1.57545,0,2.70603.53384,3.45924,1.63221.77162,1.13211,1.16279,3.02511,1.16279,5.62835,0,3.12482-.29453,6.40151-.8744,9.74109-.57986,3.33805-1.40364,6.6178-2.44831,9.75183-1.04007,3.12175-2.30258,5.98272-3.7507,8.50466-1.43739,2.50047-3.02204,4.50851-4.70947,5.96891Z" style="fill: #0f6099;"></path>
          <path d="M2085.98002,564.2209c-.98638-1.01399-2.36854-1.52789-4.10967-1.52789-2.00191,0-3.92098.56759-5.70659,1.68743-1.76874,1.11064-3.50986,2.92386-5.17428,5.39211-1.64908,2.44371-3.33345,5.67744-5.00707,9.6107-.16107.37891-.32368.76855-.48936,1.16586l1.27631-5.04849c.46788-1.81783.85445-3.69548,1.15052-5.57927.30374-1.94668.13039-3.63565-.51543-5.02088-.68418-1.465-2.29798-2.20747-4.79844-2.20747-1.87919,0-3.87036.61054-5.91829,1.81322-2.06634,1.21649-3.78138,3.74457-5.09758,7.51368l-2.37621,6.94148h2.4974l1.23643-3.516c1.15206-3.22453,2.25656-5.52711,3.28282-6.8387.98638-1.26097,2.03566-1.87305,3.20766-1.87305,1.05388,0,1.31466.50009,1.42358.93422.18562.75014-.00614,2.10162-.57066,4.02069l-10.55566,37.73866-.13806.49856h8.47551l1.7626-6.97523c1.12138-3.76144,2.27803-7.32346,3.44696-10.61548,1.42511-4.01302,2.90238-7.7177,4.38732-11.00973,1.48647-3.29049,2.98676-6.14532,4.46096-8.48625,1.4696-2.33326,2.92386-4.13881,4.32443-5.36757,1.35608-1.18887,2.67228-1.79175,3.91638-1.79328-.82377.46788-1.54323,1.07842-2.14918,1.82396-.8161,1.00479-1.23029,2.2719-1.23029,3.76451,0,1.11677.38811,2.00344,1.15359,2.63393.74094.61515,1.66902.92655,2.75665.92655,1.74112,0,3.28436-.65963,4.58828-1.96202,1.30239-1.30239,1.96202-2.90545,1.96202-4.7647,0-1.56471-.49549-2.86864-1.47267-3.87956Z" style="fill: #0f6099;"></path>
          <path d="M2130.53898,564.39117c-.83605-1.12598-2.36241-1.69817-4.53613-1.69817-.79923,0-1.65215.1396-2.53575.41265-.88974.27613-1.89453.84678-2.98062,1.6905-1.27324.97104-2.31638,2.22894-3.10027,3.73843-.75321,1.44659-1.49721,3.00823-2.21207,4.64351-.68878,1.57852-1.54937,3.11101-2.55723,4.54993-.98638,1.40977-2.33479,2.61399-4.00842,3.57889-1.42358.82071-3.28129,1.35915-5.53478,1.60613l12.91806-44.08034-.81304.41726c-2.13537,1.0953-4.50238,1.95742-7.03813,2.56183-2.54035.60748-5.4412.94496-8.62431,1.00172l-.28993.0046-.75014,2.62779h.52004c3.40248,0,4.65271.68264,5.10065,1.25484.64736.82991.69798,2.19213.1534,4.04677l-17.41737,58.67356-.15033.5047h8.47398l7.34954-25.07832c4.24006.39731,7.02739,1.3162,8.29296,2.73517,1.34228,1.50949,1.68283,3.92558,1.00786,7.18079l-1.58158,7.5597c-.67037,3.04812-.3743,5.30928.88207,6.72365,1.2441,1.40057,2.88091,2.11082,4.86748,2.11082,1.45119,0,2.87631-.27613,4.23546-.81917,1.37449-.55072,2.64006-1.52176,3.76451-2.88704,1.11064-1.35148,2.06634-3.24447,2.84102-5.62529l2.2811-6.93688h-2.50047l-1.14285,3.52367c-1.09376,3.28436-2.15378,5.59767-3.14783,6.87705-.94343,1.21188-1.94822,1.82703-2.98829,1.82703-1.14899,0-1.33614-.44794-1.3975-.5952-.1396-.33288-.24851-1.04314.02301-2.54496l1.75953-8.78999c.54458-2.60632.32061-4.76009-.66577-6.3969-.97718-1.6184-2.42837-2.85483-4.31369-3.67707-1.66596-.72406-3.55895-1.20115-5.63909-1.42051.28686-.11505.56145-.24084.82377-.37584,1.86231-.9603,3.38867-2.22741,4.53306-3.76604,1.12905-1.51562,2.09088-3.15243,2.85943-4.86748.75781-1.6905,1.52483-3.29663,2.27803-4.77697.73173-1.43585,1.64295-2.59098,2.69989-3.42702.44794-.33442.91428-.61668,1.38523-.83758.24238-.11352.51697-.19789.81917-.25005-.48629.55839-.91735,1.1812-1.28858,1.86078-.55378,1.01706-.86519,1.9743-.92502,2.84716-.06596,1.02013.19329,1.97583.76855,2.83795.60287.90354,1.62914,1.36222,3.05272,1.36222,1.9022,0,3.30277-.74554,4.16642-2.21667.81917-1.3975,1.26711-2.67075,1.32694-3.77371.12426-1.50028-.22704-2.81801-1.04467-3.91791Z" style="fill: #0f6099;"></path>
        </g>
        <path d="M2135.95057,545.62963v-1.78253h9.10416v1.78253h-3.4914v8.89792h-2.12136v-8.89792h-3.4914ZM2149.91986,543.8471l2.72904,7.64573,2.74672-7.64573h3.03546v10.68045h-1.95931v-8.61802l-2.95517,8.61802h-1.70887l-2.98169-8.61802v8.61802h-1.95931v-10.68045h3.05314Z" style="fill: #0f6099;"></path>
      </g>
    </g>
  </g>
</svg>
