<?xml version="1.0" encoding="UTF-8"?>
<svg preserveAspectRatio="xMidYMid slice" xmlns="http://www.w3.org/2000/svg" id="uuid-2b2b168e-12a0-4ad0-80fc-380df18d1980" data-name="Logomark" width="640px" height="181px" viewBox="0 0 2138.21589 604.89071">
  <g id="uuid-c3ced4c2-08e8-43f4-a70a-dfb1145e8c74" data-name="Split_copy">
    <g>
      <g>
        <path d="M2020.40919,399.9261c-3.39663-3.09315-5.09135-9.73137-5.09135-17.91947v-79.95673c0-10.18149-.80048-18.26683-2.39423-24.25601-1.60096-5.98918-4.29567-10.97716-8.08654-14.97356-7.1875-7.58474-17.77163-11.37921-31.74279-11.37921-11.18269,0-21.21394,2.84495-30.09615,8.53425-7.80672,4.99959-14.11197,12.73764-18.91087,23.20762-.44514.97117-1.90163.64886-1.90163-.41947v-30.42397c-8.1875,2.79808-18.56731,4.19231-31.14423,4.19231-5.98798,0-12.18029-.29928-18.56731-.89844v.08233c.00005,3.35249,2.50447,6.1121,5.82136,6.5993,5.35252.78621,9.29945,2.75168,11.84691,5.89589,3.39423,4.19231,5.09135,10.88341,5.09135,20.0637v93.73197c0,8.1881-1.69712,14.82632-5.09135,17.91947-2.56337,2.33751-6.54374,2.77807-11.94732,3.36298-3.25405.35223-5.72092,3.10201-5.72095,6.37506v.19225s69.47596,0,69.47596,0h0c0-3.34401-2.46014-6.18411-5.76938-6.66502-4.367-.63462-7.58608-1.0507-9.6537-3.26527-2.89423-3.09315-4.34135-9.73137-4.34135-17.91947v-66.48077c0-10.18149,1.74519-19.41346,5.24038-27.70012,3.49038-8.28185,8.43269-14.82332,14.82452-19.61478,6.38702-4.79147,13.67067-7.1869,21.86058-7.1869,9.77885,0,16.26923,2.94772,19.46394,8.83413,3.19231,5.89063,4.79087,14.42548,4.79087,25.60397v86.54447c0,8.1881-1.44952,14.82632-4.34135,17.91947-2.07083,2.21433-5.28918,2.63027-9.65416,3.26506-3.30907.48123-5.76891,3.32134-5.76891,6.66522h0s69.47596,0,69.47596,0v-.19271c-.00004-3.27286-2.46679-6.02246-5.72065-6.37462-5.40433-.5849-9.38789-1.02546-11.94762-3.36296Z" style="fill: #fff;"></path>
        <path d="M1805.86592,251.44112c-20.36539,0-36.78846,6.73798-49.26202,20.21334-12.47837,13.47596-18.71635,33.89063-18.71635,61.24039,0,27.35397,6.23798,47.71695,18.71635,61.09015,12.47356,13.3774,28.89664,20.0637,49.26202,20.0637,20.36298,0,36.78125-6.6863,49.25962-20.0637,12.47596-13.3732,18.71635-33.73618,18.71635-61.09015,0-27.34976-6.24038-47.76442-18.71635-61.24039-12.47837-13.47536-28.89664-20.21334-49.25962-20.21334ZM1834.31303,389.79268c-6.99038,12.17969-16.46875,18.26683-28.44712,18.26683s-21.46394-6.08714-28.44952-18.26683c-6.99038-12.17548-10.48077-31.14423-10.48077-56.89784s3.49038-44.76983,10.48077-57.04748c6.98558-12.27825,16.47115-18.41707,28.44952-18.41707s21.45673,6.13882,28.44712,18.41707c6.98558,12.27764,10.48317,31.29327,10.48317,57.04748s-3.4976,44.72236-10.48317,56.89784Z" style="fill: #fff;"></path>
        <path d="M1703.78178,393.68571c-7.6899,4.99219-15.82452,7.48618-24.40625,7.48618-12.77885,0-23.16346-5.63822-31.14423-16.91947-7.98798-11.27644-11.97837-29.29567-11.97837-54.05289,0-17.76683,2.09615-32.08954,6.28846-42.97296,4.19231-10.87861,9.47837-18.66466,15.87019-23.35817,6.38702-4.6881,13.27644-7.03726,20.66346-7.03726,5.78846,0,11.23077,1.19832,16.31971,3.59375,4.07001,1.9149,7.15074,4.21269,9.24343,6.89336.73311.9391.40623,2.35147-.69562,2.80457-2.68338,1.10346-4.98338,2.81192-6.89877,5.12538-2.39663,2.89663-3.59375,6.4387-3.59375,10.63101,0,4.59495,1.59375,8.23498,4.79087,10.93029,3.1899,2.69531,7.08413,4.04267,11.67788,4.04267,4.59135,0,8.38702-1.497,11.37981-4.49219,2.99519-2.99459,4.49279-7.08413,4.49279-12.27764,0-9.18029-4.69231-16.86839-14.07452-23.05829-9.78365-6.38702-21.36539-9.58293-34.73798-9.58293-13.57933,0-25.65625,3.54688-36.23558,10.63101-10.58413,7.08834-18.81971,16.91947-24.70433,29.497-5.89183,12.57692-8.83413,26.95132-8.83413,43.1226,0,15.97416,2.89183,29.9976,8.68269,42.07392,5.78846,12.08173,13.72596,21.3137,23.80769,27.70072,10.07933,6.38642,21.3101,9.58233,33.6899,9.58233,14.77163,0,26.80289-4.09375,36.08654-12.27764,9.28125-8.18389,15.61779-17.96815,19.01442-29.34736h0c-3.17825-1.17087-6.71182.16439-8.38223,3.11091-4.51807,7.96965-9.95922,14.02002-16.32209,18.15111Z" style="fill: #fff;"></path>
        <path d="M1601.21928,400.42309c-2.09615,1.09976-4.34375,1.64724-6.73798,1.64724-3.39663,0-5.79327-1.09495-7.1875-3.29387-1.39904-2.19471-2.09615-5.78846-2.09615-10.78065v-83.2506c0-10.57933-.85096-19.11418-2.54567-25.60397-1.69712-6.48498-5.04327-12.02524-10.03125-16.62019-7.98798-7.38341-19.76442-11.07993-35.33654-11.07993-8.78846,0-16.8726,1.09916-24.25721,3.29387-7.38702,2.19952-13.47596,4.99279-18.26683,8.38522-4.59375,3.19591-8.03846,6.39123-10.33173,9.58233-2.29808,3.19591-3.44471,7.1875-3.44471,11.97897,0,4.99219,1.39663,9.23618,4.19471,12.72716,2.79327,3.49519,6.98558,5.24038,12.57692,5.24038,4.98798,0,9.08173-1.44591,12.27644-4.34255,3.19231-2.89123,4.79327-6.83594,4.79327-11.82873,0-4.79087-1.34856-8.78245-4.04327-11.97837-2.11595-2.50573-4.63357-4.33634-7.54935-5.49183-1.18324-.4689-1.46655-2.02611-.55352-2.91285,5.94735-5.77614,15.18677-8.66443,27.71826-8.66443,8.78125,0,15.61779,2.14784,20.51202,6.4381,4.88942,4.29567,7.33654,12.23137,7.33654,23.80769v18.56671c0,5.39002-2.69471,9.6857-8.08413,12.8768-5.39183,3.19591-13.67788,6.69111-24.85577,10.48077-10.98317,3.79507-19.81731,7.38822-26.5024,10.78065-6.69231,3.39724-12.48077,7.98738-17.37019,13.77524-4.89423,5.79267-7.33654,13.17668-7.33654,22.16046,0,11.18269,3.04087,19.91406,9.13462,26.20313,6.08654,6.28846,15.42067,9.43269,28,9.43269,9.77885,0,18.5649-1.94651,26.35096-5.83954,7.78606-3.89303,14.67548-10.82752,20.66346-20.8125,0,8.1887,1.89423,14.67368,5.6899,19.46514,3.79087,4.79147,10.48077,7.1869,20.0649,7.1869,5.58654,0,10.22837-.85156,13.92308-2.54507,3.69231-1.69411,8.13221-4.53906,13.32692-8.53486l-.03824-.05911c-1.70429-2.6345-5.1997-3.32063-7.84709-1.63643-.73193.46563-1.4472.88103-2.14592,1.24602ZM1558.24572,377.21516c-9.38702,15.17428-20.66346,22.75901-33.83894,22.75901-7.1875,0-12.98077-2.29267-17.36779-6.88762-4.39423-4.59014-6.58894-11.37981-6.58894-20.36358,0-7.78606,1.69471-14.17308,5.09135-19.16526,3.39183-4.98798,7.4351-8.93269,12.1274-11.82873,4.6875-2.89183,10.82692-5.9381,18.41587-9.13401,6.58894-2.99459,11.47837-5.39002,14.67548-7.1869,3.1899-1.79688,5.6899-4.08954,7.48558-6.88762v58.69471Z" style="fill: #fff;"></path>
        <path d="M1437.83466,394.58355c-7.38942,4.59495-15.8726,6.88762-25.45433,6.88762-7.78606,0-15.22596-2.64363-22.3101-7.9357-7.08894-5.28726-12.77885-12.82512-17.06971-22.60938-4.29567-9.77885-6.4375-21.26142-6.4375-34.4381,0-7.1869.29808-13.57392.89663-19.16526h93.73317c0-22.16046-4.84375-38.67728-14.52404-49.5613-9.6851-10.87861-23.50721-16.32031-41.47596-16.32031-13.57933,0-25.45433,3.44351-35.63702,10.33113-10.18029,6.88762-18.06971,16.72356-23.65625,29.497-5.59135,12.77885-8.38462,27.85036-8.38462,45.21875,0,15.3756,2.74038,28.89844,8.23558,40.57752,5.48798,11.67909,13.42308,20.76563,23.80529,27.2506,10.37981,6.48558,22.65625,9.73257,36.83414,9.73257,13.97356,0,25.90385-3.94411,35.78606-11.82873,9.88221-7.88401,16.62019-17.31731,20.21394-28.29928h0c-3.32319-1.32888-7.07753.05734-8.83109,3.17736-4.44041,7.90054-9.684,13.72981-15.72419,17.48551ZM1379.7385,270.90626c6.78365-9.18089,14.87019-13.77524,24.25721-13.77524,9.58173,0,16.8149,5.19351,21.70914,15.57151,4.89183,10.38341,7.13702,23.35817,6.73798,38.93029h-65.28125c1.59615-17.96755,5.78846-31.54147,12.57692-40.72656Z" style="fill: #fff;"></path>
        <path d="M1261.80348,297.85758v-.59916c15.76675-4.79087,27.298-11.77704,34.58646-20.96214,7.28606-9.18029,10.93029-19.5631,10.93029-31.14423,0-14.17248-5.4399-25.55228-16.31971-34.13822-10.88462-8.58173-26.50233-12.8768-46.86531-12.8768-4.79087,0-9.08654.10276-12.8774.29928l-32.34135.29928c-15.97596,0-28.14904-.29928-36.53606-.89844v5.98918c7.1875.40264,12.42788,1.19832,15.72356,2.39603,3.29327,1.19772,5.53846,3.49519,6.73798,6.88762,1.19712,3.39663,1.79567,8.88522,1.79567,16.47055v148.53306c0,7.58954-.59856,13.07813-1.79567,16.46995-1.19952,3.39724-3.44471,5.6899-6.73798,6.88762-3.29567,1.19832-8.53606,1.9982-15.72356,2.39603v5.98918c8.38702-.59916,20.76202-.89844,37.13462-.89844,12.375,0,24.95433.20132,37.73077.59916,3.79087.20072,8.38702.29928,13.77644.29928,14.77163,0,27.55041-2.44231,38.33166-7.33654,10.77885-4.89002,19.0625-11.72596,24.85577-20.51322,5.78606-8.78305,8.68269-18.86659,8.68269-30.24579,0-13.57392-4.69231-25.20192-14.07452-34.88762-9.38462-9.68089-25.05529-16.02103-47.01435-19.01563ZM1214.48857,229.58054c0-7.1875.59856-12.57752,1.79567-16.17127,1.19712-3.59375,3.34135-6.08774,6.4399-7.48678,3.09135-1.39423,7.73317-2.09615,13.92308-2.09615,14.77163,0,25.45433,3.69651,32.04327,11.08053,6.58887,7.38822,9.88214,18.56611,9.88214,33.53966,0,14.77644-3.2476,26.60517-9.7331,35.48618-6.49038,8.88522-17.92067,13.32572-34.28846,13.32572h-20.0625v-67.67789ZM1236.94771,402.96876c-6.39183,0-11.13221-.64543-14.22356-1.94651-3.09856-1.29627-5.24279-3.64063-6.4399-7.03726-1.19712-3.39243-1.79567-8.6845-1.79567-15.87139v-75.76382h25.15385c18.56731,0,32.08894,4.09375,40.57685,12.27764,8.48317,8.1887,12.72837,20.16707,12.72837,35.9357,0,34.9387-18.67067,52.40565-55.99993,52.40565Z" style="fill: #fff;"></path>
        <path d="M1132.88521,394.58355c-7.38702,4.59495-15.87019,6.88762-25.45433,6.88762-7.78606,0-15.22596-2.64363-22.3101-7.9357-7.08894-5.28726-12.77885-12.82512-17.06731-22.60938-4.29567-9.77885-6.4399-21.26142-6.4399-34.4381,0-7.1869.30048-13.57392.89904-19.16526h93.73077c0-22.16046-4.84135-38.67728-14.52404-49.5613-9.6851-10.87861-23.50721-16.32031-41.47596-16.32031-13.57692,0-25.45433,3.44351-35.63462,10.33113-10.18269,6.88762-18.06971,16.72356-23.65865,29.497-5.59135,12.77885-8.38462,27.85036-8.38462,45.21875,0,15.3756,2.74279,28.89844,8.23558,40.57752,5.48798,11.67909,13.42548,20.76563,23.80769,27.2506,10.3774,6.48558,22.65625,9.73257,36.83414,9.73257,13.97115,0,25.90385-3.94411,35.78606-11.82873,9.88221-7.88401,16.62019-17.31731,20.21394-28.29928h0c-3.32338-1.32895-7.078.05714-8.8319,3.1772-4.44122,7.90062-9.68359,13.72994-15.72579,17.48566ZM1074.78905,270.90626c6.78606-9.18089,14.87019-13.77524,24.25721-13.77524,9.58413,0,16.81731,5.19351,21.71154,15.57151,4.88942,10.38341,7.13462,23.35817,6.73798,38.93029h-65.28366c1.59615-17.96755,5.78846-31.54147,12.57692-40.72656Z" style="fill: #fff;"></path>
        <path d="M1010.34915,382.00662v-79.95673c0-10.18149-.80048-18.26683-2.39423-24.25601-1.60096-5.98918-4.29567-10.97716-8.08654-14.97356-7.1875-7.58474-17.77163-11.37921-31.74279-11.37921-11.18269,0-21.21394,2.84495-30.09615,8.53425-8.88462,5.6899-15.82452,14.92668-20.8125,27.70072v-35.33654c-8.1875,2.79808-18.56731,4.19231-31.14423,4.19231-5.98798,0-12.17909-.29928-18.56611-.89844v.08311c.00009,3.3521,2.50423,6.11138,5.82074,6.59856,5.35199.78619,9.29889,2.75166,11.84633,5.89585,3.39423,4.19231,5.09135,10.88341,5.09135,20.0637v93.73197c0,8.1881-1.69712,14.82632-5.09135,17.91947-2.54745,2.32299-6.49435,2.7725-11.84635,3.35205-3.29297.35658-5.82064,3.07296-5.82072,6.38518v.19306s69.47476,0,69.47476,0h0c0-3.3568-2.47781-6.18686-5.79973-6.66943-4.35157-.63215-7.56052-1.05142-9.62335-3.26086-2.89423-3.09315-4.34135-9.73137-4.34135-17.91947v-66.48077c0-10.18149,1.74519-19.41346,5.24038-27.70012,3.49038-8.28185,8.43269-14.82332,14.82452-19.61478,6.38702-4.79147,13.67067-7.1869,21.86058-7.1869,9.77885,0,16.26923,2.94772,19.46394,8.83413,3.19231,5.89063,4.79087,14.42548,4.79087,25.60397v86.54447c0,8.1881-1.44952,14.82632-4.34135,17.91947-2.06596,2.20912-5.27404,2.6283-9.62336,3.26058-3.32192.48292-5.79971,3.31286-5.79971,6.6697h0s69.47596,0,69.47596,0v-.19273c-.00004-3.3124-2.52786-6.02895-5.82101-6.38548-5.35331-.57956-9.3034-1.02907-11.84725-3.35208-3.39663-3.09315-5.09135-9.73137-5.09135-17.91947Z" style="fill: #fff;"></path>
        <path d="M754.0425,193.34722c-60.75271,0-110.00256,49.24978-110.00256,110.00256s49.24985,110.00256,110.00256,110.00256,110.00256-49.24985,110.00256-110.00256-49.24985-110.00256-110.00256-110.00256ZM754.0425,406.4841c-41.69751,0-75.5-46.29053-75.5-103.39281s33.80249-103.39281,75.5-103.39281,75.5,46.29053,75.5,103.39281-33.80249,103.39281-75.5,103.39281Z" style="fill: #fff;"></path>
      </g>
      <path d="M98.18508,293.78803c-.11958,2.87216-.1951,5.75578-.1951,8.65736s.07552,5.78521.1951,8.65736c4.41892,106.13603,89.66195,191.37906,195.79798,195.79798V97.98997c-106.13603,4.41892-191.37906,89.66203-195.79798,195.79806Z" style="fill: #fff;"></path>
      <g>
        <path d="M309.98307,506.90071c106.2346-4.423,191.55694-89.74527,195.97995-195.97987h-195.97995v195.97987Z" style="fill: #fff;"></path>
        <rect x="407.50148" y="278.92083" width="98.46154" height="16" style="fill: #fff;"></rect>
        <rect x="403.1639" y="237.38149" width="139.69244" height="15.99996" transform="translate(-47.39196 130.78513) rotate(-14.99999)" style="fill: #fff;"></rect>
        <rect x="389.89221" y="208.98065" width="98.46155" height="16.00003" transform="translate(-49.65905 248.6308) rotate(-29.99993)" style="fill: #fff;"></rect>
        <rect x="355.03905" y="149.53442" width="184.6609" height="15.99999" transform="translate(19.63784 362.47876) rotate(-45)" style="fill: #fff;"></rect>
        <rect x="338.6925" y="157.78087" width="98.46149" height="16.00003" transform="translate(50.39109 418.84172) rotate(-59.99998)" style="fill: #fff;"></rect>
        <rect x="289.67743" y="123.89539" width="139.68918" height="15.99996" transform="translate(139.0701 445.0302) rotate(-75.00007)" style="fill: #fff;"></rect>
        <rect x="309.98307" y="97.80973" width="16" height="98.46154" style="fill: #fff;"></rect>
      </g>
    </g>
    <path d="M2026.43125,260.70509v-2.36328h12.07031v2.36328h-4.62891v11.79687h-2.8125v-11.79687h-4.62891ZM2044.95176,258.34181l3.61816,10.13672,3.6416-10.13672h4.02441v14.16016h-2.59766v-11.42578l-3.91797,11.42578h-2.26562l-3.95312-11.42578v11.42578h-2.59766v-14.16016h4.04785Z" style="fill: #fff;"></path>
  </g>
</svg>
