<svg width="32" height="32" viewBox="0 0 32 32" fill="none" xmlns="http://www.w3.org/2000/svg">
<circle cx="16" cy="16" r="16" fill="white"/>
<path d="M22.0956 6.7545C22.1679 6.67638 22.2498 6.615 22.3396 6.54619C22.4118 6.49225 22.4704 6.42157 22.5094 6.34532C22.5817 6.20583 22.6148 6.03472 22.5426 5.85803C22.4782 5.69622 22.3474 5.56417 22.1854 5.48605C21.7053 5.26101 21.1295 5.0062 20.4717 4.77371C19.3103 4.36268 17.864 4.02976 16.1581 4H15.8321C14.1262 4.02232 12.6799 4.36454 11.5185 4.77371C10.853 5.0062 10.2752 5.261 9.79506 5.49349C9.63305 5.57161 9.50228 5.7018 9.44567 5.86547C9.38126 6.04402 9.40468 6.21327 9.48666 6.3602C9.52765 6.42901 9.58426 6.49225 9.64867 6.54619C9.73845 6.615 9.81848 6.67824 9.90046 6.7545C6.3637 8.75202 4 12.4141 4 16.5952C4 22.2399 8.3136 26.938 13.9623 27.8605C14.3936 27.9293 14.8308 27.9758 15.2778 28V23.726H16.7163V28C17.1633 27.9777 17.6025 27.9219 18.0319 27.8605V23.7334H20.0228V27.3639C20.4697 27.2095 20.9089 27.031 21.3383 26.8301C22.9057 26.0862 24.2798 25.026 25.3689 23.7334C25.7027 23.3391 26.0111 22.9206 26.2863 22.4799H21.3383V21.163H27.0006C27.188 20.752 27.35 20.3354 27.4886 19.9095H21.3383V18.5927H27.8224C27.8946 18.1816 27.9532 17.765 27.9766 17.3391C27.9922 17.0918 28 16.8444 28 16.5952C28 12.4141 25.6265 8.75202 22.1093 6.7545H22.0956ZM13.9623 19.9076H9.97267C9.60768 19.9076 9.3149 20.1866 9.3149 20.5344C9.3149 20.8822 9.60768 21.1612 9.97267 21.1612H13.9623V22.478H10.9232C10.5582 22.478 10.2655 22.757 10.2655 23.1048C10.2655 23.4526 10.5582 23.7316 10.9232 23.7316H13.9623V26.6962C8.98113 25.7905 5.20429 21.602 5.20429 16.5933C5.20429 12.6057 7.59336 9.54061 11.0716 8.06944C11.542 8.65716 11.9655 9.2765 12.3149 9.9349C12.9902 11.2201 13.4196 12.5983 13.6714 14.0155C13.728 14.3949 13.769 14.7502 13.8022 15.0608C13.9232 16.199 13.9486 17.0657 13.9564 17.3373H10.9174C10.5524 17.3373 10.2596 17.6162 10.2596 17.964C10.2596 18.3118 10.5524 18.5908 10.9174 18.5908H13.9564V19.9076H13.9623ZM16.7085 22.478H15.27V21.1612H16.7085C16.7085 21.1631 16.7085 22.478 16.7085 22.478ZM16.7085 19.9076H15.27V18.5908H16.7085C16.7085 18.5927 16.7085 19.9076 16.7085 19.9076ZM16.7476 16.3701C16.7241 16.85 16.7144 17.1903 16.7066 17.3373H15.2681V16.1525C15.2681 15.2858 15.918 14.5418 16.8198 14.2554C16.7885 14.9678 16.7651 15.6727 16.7476 16.3701ZM17.7469 9.15375C17.2668 10.3776 17.0403 11.646 16.9174 12.9312C16.242 13.0558 15.6252 13.3422 15.1373 13.744C15.1373 13.6045 15.1217 13.4575 15.1041 13.318C14.9577 11.2666 14.4385 9.18351 13.3982 7.3571C13.365 7.29572 13.326 7.23249 13.2928 7.17111C13.0156 6.6987 12.7072 6.25047 12.3754 5.81711C13.3826 5.49907 14.5849 5.25915 15.9668 5.25171C17.3722 5.25171 18.5921 5.49907 19.6148 5.81711C19.242 6.31184 18.9005 6.82331 18.5999 7.3571C18.2661 7.93738 17.9831 8.53441 17.7547 9.15375H17.7469ZM20.015 22.478H18.0241V21.1612H20.015V22.478ZM20.015 19.9002H18.0241V18.5834H20.015V19.9002ZM20.015 17.3298H18.0241C18.0241 17.0583 18.0573 16.1916 18.1783 15.0533C18.2017 14.7892 18.2427 14.5028 18.2837 14.194C19.2752 14.434 20.015 15.2151 20.015 16.1451V17.3298ZM23.7606 23.726C23.0462 24.4309 22.2245 25.0428 21.3305 25.5301V23.726H23.7606ZM26.7586 17.3298H21.3227V16.1451C21.3227 14.6125 20.136 13.3199 18.5355 12.9628C18.6487 12.522 18.7638 12.0887 18.9083 11.6534C19.3474 10.3218 20.054 9.13701 20.9148 8.06944C24.4008 9.54061 26.782 12.6057 26.782 16.5933C26.782 16.8407 26.7742 17.088 26.7586 17.3373V17.3298Z" fill="black"/>
</svg>
